<svg width="22" height="23" viewBox="0 0 22 23" fill="none" xmlns="http://www.w3.org/2000/svg">
<path d="M11 3.5C6 3.5 1.73 6.61 0 11C1.73 15.39 6 18.5 11 18.5C16 18.5 20.27 15.39 22 11C20.27 6.61 16 3.5 11 3.5ZM11 16C8.24 16 6 13.76 6 11C6 8.24 8.24 6 11 6C13.76 6 16 8.24 16 11C16 13.76 13.76 16 11 16ZM11 8C9.34 8 8 9.34 8 11C8 12.66 9.34 14 11 14C12.66 14 14 12.66 14 11C14 9.34 12.66 8 11 8Z" fill="#52717D"/>
<path d="M10.6897 2.54902C11.047 2.54902 11.3367 2.28565 11.3367 1.96078V0.588235C11.3367 0.263373 11.047 0 10.6897 0C10.3323 0 10.0426 0.263373 10.0426 0.588235V1.96078C10.0426 2.28565 10.3323 2.54902 10.6897 2.54902Z" fill="#52717D"/>
<path d="M10.6897 19.8641C11.047 19.8641 11.3367 20.1275 11.3367 20.4523V21.8249C11.3367 22.1497 11.047 22.4131 10.6897 22.4131C10.3323 22.4131 10.0426 22.1497 10.0426 21.8249V20.4523C10.0426 20.1275 10.3323 19.8641 10.6897 19.8641Z" fill="#52717D"/>
<path d="M14.5505 3.33577C14.8607 3.49663 15.256 3.39856 15.4331 3.1162L16.2942 1.74365C16.4712 1.46146 16.3632 1.10224 16.0527 0.941263C15.7422 0.780321 15.3472 0.878557 15.1701 1.16083L14.309 2.53338C14.1319 2.81554 14.24 3.17479 14.5505 3.33577Z" fill="#52717D"/>
<path d="M14.5505 19.0773C14.8607 18.9165 15.256 19.0146 15.4331 19.2969L16.2942 20.6695C16.4712 20.9517 16.3632 21.3109 16.0527 21.4719C15.7422 21.6328 15.3472 21.5346 15.1701 21.2523L14.309 19.8797C14.1319 19.5976 14.24 19.2383 14.5505 19.0773Z" fill="#52717D"/>
<path d="M5.94621 3.1162C6.12324 3.39839 6.51838 3.49667 6.82884 3.33573C7.13926 3.17478 7.24736 2.81553 7.07032 2.53333L6.20922 1.16078C6.03218 0.878589 5.63696 0.780314 5.32658 0.941256C5.01617 1.1022 4.90806 1.46145 5.0851 1.74365L5.94621 3.1162Z" fill="#52717D"/>
<path d="M5.94621 19.2969C6.12324 19.0147 6.51838 18.9164 6.82884 19.0774C7.13926 19.2383 7.24736 19.5976 7.07032 19.8798L6.20922 21.2523C6.03218 21.5345 5.63696 21.6328 5.32658 21.4719C5.01617 21.3109 4.90806 20.9517 5.0851 20.6695L5.94621 19.2969Z" fill="#52717D"/>
</svg>
