<svg width="55" height="56" viewBox="0 0 55 56" fill="none" xmlns="http://www.w3.org/2000/svg">
<path d="M47.0025 16.6055L55 8.52182L48.9582 6.10691L46.5692 0L38.5717 8.08373V14.285L37.0664 15.8066C33.1335 12.3481 27.9991 10.2514 22.3891 10.2514C10.0437 10.2515 0 20.4035 0 32.8821C0 38.7355 2.21005 44.0769 5.83094 48.0988L0.309723 53.6796L2.60537 56L8.18384 50.3613C12.0515 53.5783 17.0009 55.5126 22.3891 55.5126C27.7814 55.5126 32.7345 53.5756 36.6034 50.3539L42.1893 56L44.4849 53.6796L38.9552 48.0902C42.5715 44.0693 44.7783 38.7313 44.7783 32.8821C44.7783 27.2525 42.7336 22.0969 39.3562 18.133L40.8674 16.6055H47.0025ZM41.8182 9.44296L45.3684 5.85444L46.4566 8.63569L49.2079 9.73545L45.6577 13.324H41.8182V9.44296ZM41.5316 32.8821C41.5316 43.5511 32.9443 52.231 22.3891 52.231C11.8338 52.231 3.24657 43.5512 3.24657 32.8821C3.24657 22.2129 11.8338 13.533 22.3891 13.533C27.1039 13.533 31.425 15.2658 34.7647 18.1331L31.5352 21.3974C29.0311 19.3559 25.8492 18.1317 22.3891 18.1317C14.3426 18.1317 7.7962 24.7487 7.7962 32.8821C7.7962 41.0154 14.3426 47.6323 22.3891 47.6323C30.4356 47.6323 36.982 41.0154 36.982 32.8821C36.982 29.4258 35.7993 26.2438 33.8222 23.7266L37.0536 20.4603C39.8468 23.8238 41.5316 28.1575 41.5316 32.8821ZM33.7354 32.8821C33.7354 39.206 28.6454 44.3507 22.3891 44.3507C16.1327 44.3507 11.0428 39.206 11.0428 32.8821C11.0428 26.5581 16.1326 21.4134 22.3891 21.4134C24.9534 21.4134 27.3216 22.2782 29.2239 23.7338L26.0297 26.9625C24.9722 26.2956 23.7248 25.9088 22.3892 25.9088C18.5852 25.9088 15.4902 29.0371 15.4902 32.8822C15.4902 36.7272 18.5851 39.8555 22.3892 39.8555C26.1933 39.8555 29.2882 36.7272 29.2882 32.8822C29.2882 31.5739 28.9292 30.3491 28.3067 29.3019L31.5083 26.0658C32.9069 27.9726 33.7354 30.3313 33.7354 32.8821ZM26.0414 32.8821C26.0414 34.9176 24.4029 36.5738 22.389 36.5738C20.375 36.5738 18.7366 34.9176 18.7366 32.8821C18.7366 30.8465 20.375 29.1903 22.389 29.1903C22.8184 29.1903 23.2305 29.2662 23.6136 29.4045L21.321 31.7219L23.6166 34.0423L25.87 31.7647C25.981 32.1173 26.0414 32.4926 26.0414 32.8821Z" fill="#264653"/>
</svg>
