<svg width="762" height="762" viewBox="0 0 762 762" fill="none" xmlns="http://www.w3.org/2000/svg">
<g clip-path="url(#clip0)">
<path d="M762 582.778H0V583.159H762V582.778Z" fill="#EBEBEB"/>
<path d="M361.188 514.807H66.9188C64.6136 514.803 62.4041 513.885 60.7754 512.253C59.1468 510.622 58.232 508.41 58.232 506.105V92.4458C58.2521 90.1538 59.1757 87.9622 60.8022 86.3471C62.4287 84.7321 64.6267 83.8239 66.9188 83.82H361.188C363.496 83.82 365.709 84.7368 367.341 86.3688C368.973 88.0007 369.89 90.2141 369.89 92.522V506.105C369.89 508.413 368.973 510.627 367.341 512.258C365.709 513.89 363.496 514.807 361.188 514.807ZM66.9188 84.1248C64.7146 84.1288 62.602 85.0073 61.0448 86.5674C59.4876 88.1274 58.613 90.2416 58.613 92.4458V506.105C58.613 508.309 59.4876 510.424 61.0448 511.984C62.602 513.544 64.7146 514.422 66.9188 514.426H361.188C363.394 514.422 365.508 513.544 367.067 511.985C368.627 510.425 369.505 508.311 369.509 506.105V92.4458C369.505 90.2402 368.627 88.1261 367.067 86.5664C365.508 85.0068 363.394 84.1288 361.188 84.1248H66.9188Z" fill="#EBEBEB"/>
<path d="M690.844 514.807H396.56C394.253 514.803 392.042 513.885 390.411 512.254C388.78 510.623 387.862 508.412 387.858 506.105V92.4458C387.882 90.1524 388.809 87.9608 390.438 86.3462C392.067 84.7315 394.266 83.8239 396.56 83.82H690.844C693.134 83.8279 695.328 84.7378 696.951 86.3525C698.574 87.9671 699.496 90.1564 699.516 92.4458V506.105C699.516 508.408 698.603 510.617 696.978 512.248C695.353 513.879 693.147 514.799 690.844 514.807ZM396.56 84.1248C394.354 84.1288 392.24 85.0068 390.681 86.5664C389.121 88.1261 388.243 90.2402 388.239 92.4458V506.105C388.243 508.311 389.121 510.425 390.681 511.985C392.24 513.544 394.354 514.422 396.56 514.426H690.844C693.05 514.422 695.164 513.544 696.724 511.985C698.283 510.425 699.161 508.311 699.165 506.105V92.4458C699.161 90.2402 698.283 88.1261 696.724 86.5664C695.164 85.0068 693.05 84.1288 690.844 84.1248H396.56Z" fill="#EBEBEB"/>
<path d="M117.775 597.286H78.1507V597.667H117.775V597.286Z" fill="#EBEBEB"/>
<path d="M289.834 593.156H221.209V593.537H289.834V593.156Z" fill="#EBEBEB"/>
<path d="M211.943 611.444H119.299V611.825H211.943V611.444Z" fill="#EBEBEB"/>
<path d="M683.849 608.884H654.543V609.265H683.849V608.884Z" fill="#EBEBEB"/>
<path d="M640.964 608.884H556.702V609.265H640.964V608.884Z" fill="#EBEBEB"/>
<path d="M505.236 602.452H391.744V602.833H505.236V602.452Z" fill="#EBEBEB"/>
<path d="M403.662 418.353H339.578V582.778H403.662V418.353Z" fill="#F0F0F0"/>
<path d="M110.277 582.778H339.578V418.353H110.277L110.277 582.778Z" fill="#F5F5F5"/>
<path d="M124.328 566.76H162.596V533.278H124.328V566.76Z" fill="white"/>
<path d="M124.328 520.995H162.596V487.512H124.328V520.995Z" fill="#EBEBEB"/>
<g style="mix-blend-mode:multiply" opacity="0.7">
<path d="M403.647 439.583H109.591V446.181H403.647V439.583Z" fill="#E6E6E6"/>
</g>
<path d="M407.198 415.168H339.578V441.792H407.198V415.168Z" fill="#F0F0F0"/>
<path d="M106.71 441.792L339.562 441.792V415.168H106.71V441.792Z" fill="#F5F5F5"/>
<path d="M379.369 364.907H329.565V415.58H379.369V364.907Z" fill="#F0F0F0"/>
<path d="M156.134 415.564H329.55V364.891H156.134V415.564Z" fill="#F5F5F5"/>
<g style="mix-blend-mode:multiply" opacity="0.7">
<path d="M379.369 372.542H155.631V376.641H379.369V372.542Z" fill="#E6E6E6"/>
</g>
<path d="M382.112 362.422H329.565V374.264H382.112V362.422Z" fill="#F0F0F0"/>
<path d="M153.406 374.264H329.565V362.422H153.406V374.264Z" fill="#F5F5F5"/>
<path d="M438.013 582.778H486.766L486.766 336.072H438.013V582.778Z" fill="#E6E6E6"/>
<path d="M448.452 582.778H438.013V565.282H459.395L448.452 582.778Z" fill="#F0F0F0"/>
<path d="M600.654 582.778H649.407V336.072H600.654V582.778Z" fill="#E6E6E6"/>
<path d="M438.013 579.242H609.752V336.072H438.013V579.242Z" fill="#F0F0F0"/>
<path d="M446.121 413.553H601.66V346.862H446.121V413.553Z" fill="#E6E6E6"/>
<path d="M534.101 378.775C534.101 380.797 533.501 382.775 532.378 384.456C531.254 386.138 529.657 387.449 527.788 388.223C525.92 388.997 523.864 389.199 521.88 388.805C519.896 388.41 518.074 387.436 516.644 386.006C515.214 384.576 514.24 382.754 513.845 380.77C513.451 378.786 513.653 376.73 514.427 374.862C515.201 372.993 516.512 371.396 518.194 370.272C519.875 369.149 521.852 368.549 523.875 368.549C525.218 368.547 526.549 368.81 527.791 369.323C529.032 369.836 530.16 370.59 531.11 371.54C532.06 372.49 532.813 373.618 533.327 374.859C533.84 376.101 534.103 377.431 534.101 378.775Z" fill="#FAFAFA"/>
<path d="M599.313 582.778H609.752V565.282H588.371L599.313 582.778Z" fill="#F0F0F0"/>
<path d="M601.645 424.312H446.105V568.467H601.645V424.312Z" fill="#E6E6E6"/>
<path d="M580.172 456.027C585.819 456.027 590.398 451.448 590.398 445.8C590.398 440.153 585.819 435.574 580.172 435.574C574.524 435.574 569.946 440.153 569.946 445.8C569.946 451.448 574.524 456.027 580.172 456.027Z" fill="#FAFAFA"/>
<path d="M632.841 308.625V109.012L131.384 109.012V308.625H632.841Z" fill="#E6E6E6"/>
<path d="M630.631 308.61V108.996L129.174 108.996V308.61H630.631Z" fill="#F0F0F0"/>
<path d="M617.875 121.768H141.93V295.854H617.875V121.768Z" fill="white"/>
<path d="M197.419 194.31L180.685 223.312H214.168L197.419 194.31Z" fill="#E6E6E6"/>
<path d="M284.302 195.133H256.962V222.474H284.302V195.133Z" fill="#E6E6E6"/>
<path d="M343.845 191.323L325.45 204.673L332.476 226.299H355.199L362.224 204.673L343.845 191.323Z" fill="#E6E6E6"/>
<path d="M426.72 192.07H407.38L397.703 208.803L407.38 225.552H426.72L436.382 208.803L426.72 192.07Z" fill="#E6E6E6"/>
<path d="M490.256 190.424L475.137 197.709L471.404 214.076L481.858 227.183H498.638L509.107 214.076L505.374 197.709L490.256 190.424Z" fill="#E6E6E6"/>
<path d="M570.86 190.942H556.062L545.592 201.412V216.21L556.062 226.68H570.86L581.315 216.21V201.412L570.86 190.942Z" fill="#E6E6E6"/>
<path d="M762 582.958H0V583.339H762V582.958Z" fill="#EBEBEB"/>
<path d="M361.188 514.987H66.9188C64.6136 514.983 62.4041 514.065 60.7754 512.433C59.1468 510.802 58.232 508.59 58.232 506.285V92.6258C58.2521 90.3338 59.1757 88.1422 60.8022 86.5271C62.4287 84.9121 64.6267 84.0039 66.9188 84H361.188C363.496 84 365.709 84.9168 367.341 86.5488C368.973 88.1807 369.89 90.3941 369.89 92.702V506.285C369.89 508.593 368.973 510.807 367.341 512.438C365.709 514.07 363.496 514.987 361.188 514.987ZM66.9188 84.3048C64.7146 84.3088 62.602 85.1873 61.0448 86.7474C59.4876 88.3074 58.613 90.4216 58.613 92.6258V506.285C58.613 508.489 59.4876 510.604 61.0448 512.164C62.602 513.724 64.7146 514.602 66.9188 514.606H361.188C363.394 514.602 365.508 513.724 367.067 512.165C368.627 510.605 369.505 508.491 369.509 506.285V92.6258C369.505 90.4202 368.627 88.3061 367.067 86.7464C365.508 85.1868 363.394 84.3088 361.188 84.3048H66.9188Z" fill="#EBEBEB"/>
<path d="M690.844 514.987H396.56C394.253 514.983 392.042 514.065 390.411 512.434C388.78 510.803 387.862 508.592 387.858 506.285V92.6258C387.882 90.3324 388.809 88.1408 390.438 86.5262C392.067 84.9115 394.266 84.0039 396.56 84H690.844C693.134 84.0079 695.328 84.9178 696.951 86.5325C698.574 88.1471 699.496 90.3364 699.516 92.6258V506.285C699.516 508.588 698.603 510.797 696.978 512.428C695.353 514.059 693.147 514.979 690.844 514.987ZM396.56 84.3048C394.354 84.3088 392.24 85.1868 390.681 86.7464C389.121 88.3061 388.243 90.4202 388.239 92.6258V506.285C388.243 508.491 389.121 510.605 390.681 512.165C392.24 513.724 394.354 514.602 396.56 514.606H690.844C693.05 514.602 695.164 513.724 696.724 512.165C698.283 510.605 699.161 508.491 699.165 506.285V92.6258C699.161 90.4202 698.283 88.3061 696.724 86.7464C695.164 85.1868 693.05 84.3088 690.844 84.3048H396.56Z" fill="#EBEBEB"/>
<path d="M117.775 597.466H78.1507V597.847H117.775V597.466Z" fill="#EBEBEB"/>
<path d="M289.834 593.336H221.209V593.717H289.834V593.336Z" fill="#EBEBEB"/>
<path d="M211.943 611.624H119.299V612.005H211.943V611.624Z" fill="#EBEBEB"/>
<path d="M683.849 609.064H654.543V609.445H683.849V609.064Z" fill="#EBEBEB"/>
<path d="M640.964 609.064H556.702V609.445H640.964V609.064Z" fill="#EBEBEB"/>
<path d="M505.236 602.632H391.744V603.013H505.236V602.632Z" fill="#EBEBEB"/>
<path d="M403.662 418.533H339.578V582.958H403.662V418.533Z" fill="#F0F0F0"/>
<path d="M110.277 582.958H339.578V418.533H110.277L110.277 582.958Z" fill="#F5F5F5"/>
<path d="M124.328 566.94H162.596V533.458H124.328V566.94Z" fill="white"/>
<path d="M124.328 521.175H162.596V487.692H124.328V521.175Z" fill="#EBEBEB"/>
<g style="mix-blend-mode:multiply" opacity="0.7">
<path d="M403.647 439.763H109.591V446.361H403.647V439.763Z" fill="#E6E6E6"/>
</g>
<path d="M407.198 415.348H339.578V441.972H407.198V415.348Z" fill="#F0F0F0"/>
<path d="M106.71 441.972L339.562 441.972V415.348H106.71V441.972Z" fill="#F5F5F5"/>
<path d="M379.369 365.087H329.565V415.76H379.369V365.087Z" fill="#F0F0F0"/>
<path d="M156.134 415.744H329.55V365.071H156.134V415.744Z" fill="#F5F5F5"/>
<g style="mix-blend-mode:multiply" opacity="0.7">
<path d="M379.369 372.722H155.631V376.821H379.369V372.722Z" fill="#E6E6E6"/>
</g>
<path d="M382.112 362.602H329.565V374.444H382.112V362.602Z" fill="#F0F0F0"/>
<path d="M153.406 374.444H329.565V362.602H153.406V374.444Z" fill="#F5F5F5"/>
<path d="M438.013 582.958H486.766L486.766 336.252H438.013V582.958Z" fill="#E6E6E6"/>
<path d="M448.452 582.958H438.013V565.462H459.395L448.452 582.958Z" fill="#F0F0F0"/>
<path d="M600.654 582.958H649.407V336.252H600.654V582.958Z" fill="#E6E6E6"/>
<path d="M438.013 579.422H609.752V336.252H438.013V579.422Z" fill="#F0F0F0"/>
<path d="M446.121 413.733H601.66V347.042H446.121V413.733Z" fill="#E6E6E6"/>
<path d="M534.101 378.955C534.101 380.977 533.501 382.955 532.378 384.636C531.254 386.318 529.657 387.629 527.788 388.403C525.92 389.177 523.864 389.379 521.88 388.985C519.896 388.59 518.074 387.616 516.644 386.186C515.214 384.756 514.24 382.934 513.845 380.95C513.451 378.966 513.653 376.91 514.427 375.042C515.201 373.173 516.512 371.576 518.194 370.452C519.875 369.329 521.852 368.729 523.875 368.729C525.218 368.727 526.549 368.99 527.791 369.503C529.032 370.016 530.16 370.77 531.11 371.72C532.06 372.67 532.813 373.798 533.327 375.039C533.84 376.281 534.103 377.611 534.101 378.955Z" fill="#FAFAFA"/>
<path d="M599.313 582.958H609.752V565.462H588.371L599.313 582.958Z" fill="#F0F0F0"/>
<path d="M601.645 424.492H446.105V568.647H601.645V424.492Z" fill="#E6E6E6"/>
<path d="M580.172 456.207C585.819 456.207 590.398 451.628 590.398 445.98C590.398 440.333 585.819 435.754 580.172 435.754C574.524 435.754 569.946 440.333 569.946 445.98C569.946 451.628 574.524 456.207 580.172 456.207Z" fill="#FAFAFA"/>
<path d="M632.841 308.805V109.192L131.384 109.192V308.805H632.841Z" fill="#E6E6E6"/>
<path d="M630.631 308.79V109.176L129.174 109.176V308.79H630.631Z" fill="#F0F0F0"/>
<path d="M617.875 121.948H141.93V296.034H617.875V121.948Z" fill="white"/>
<path d="M197.419 194.49L180.685 223.492H214.168L197.419 194.49Z" fill="#E6E6E6"/>
<path d="M284.302 195.313H256.962V222.654H284.302V195.313Z" fill="#E6E6E6"/>
<path d="M343.845 191.503L325.45 204.853L332.476 226.479H355.199L362.224 204.853L343.845 191.503Z" fill="#E6E6E6"/>
<path d="M426.72 192.25H407.38L397.703 208.983L407.38 225.732H426.72L436.382 208.983L426.72 192.25Z" fill="#E6E6E6"/>
<path d="M490.256 190.604L475.137 197.889L471.404 214.256L481.858 227.363H498.638L509.107 214.256L505.374 197.889L490.256 190.604Z" fill="#E6E6E6"/>
<path d="M570.86 191.122H556.062L545.592 201.592V216.39L556.062 226.86H570.86L581.315 216.39V201.592L570.86 191.122Z" fill="#E6E6E6"/>
<path d="M381 651.601C544.194 651.601 676.488 643.878 676.488 634.35C676.488 624.822 544.194 617.098 381 617.098C217.806 617.098 85.5116 624.822 85.5116 634.35C85.5116 643.878 217.806 651.601 381 651.601Z" fill="#F5F5F5"/>
<path d="M364.861 197.373H615.787C617.042 197.357 618.287 197.602 619.443 198.093C620.598 198.583 621.638 199.309 622.498 200.223C623.358 201.138 624.019 202.221 624.437 203.404C624.856 204.587 625.025 205.845 624.931 207.096L604.464 536.783C604.267 539.403 603.097 541.854 601.186 543.656C599.274 545.457 596.758 546.48 594.131 546.522H343.19C341.937 546.524 340.697 546.27 339.547 545.773C338.397 545.277 337.362 544.55 336.504 543.637C335.647 542.724 334.986 541.644 334.563 540.465C334.14 539.286 333.964 538.033 334.046 536.783L354.498 207.096C354.702 204.476 355.879 202.026 357.796 200.227C359.713 198.429 362.232 197.411 364.861 197.373Z" fill="#E76F51"/>
<path opacity="0.4" d="M364.861 197.373H615.787C617.042 197.357 618.287 197.602 619.443 198.093C620.598 198.583 621.638 199.309 622.498 200.223C623.358 201.138 624.019 202.221 624.437 203.404C624.856 204.587 625.025 205.845 624.931 207.096L604.464 536.783C604.267 539.403 603.097 541.854 601.186 543.656C599.274 545.457 596.758 546.48 594.131 546.522H343.19C341.937 546.524 340.697 546.27 339.547 545.773C338.397 545.277 337.362 544.55 336.504 543.637C335.647 542.724 334.986 541.644 334.563 540.465C334.14 539.286 333.964 538.033 334.046 536.783L354.498 207.096C354.702 204.476 355.879 202.026 357.796 200.227C359.713 198.429 362.232 197.411 364.861 197.373Z" fill="black"/>
<path d="M359.1 197.373H610.027C611.282 197.357 612.526 197.602 613.682 198.093C614.837 198.583 615.878 199.309 616.738 200.223C617.597 201.138 618.258 202.221 618.677 203.404C619.096 204.587 619.264 205.845 619.171 207.096L598.703 536.783C598.506 539.405 597.334 541.859 595.419 543.661C593.505 545.463 590.985 546.483 588.355 546.522H337.429C336.176 546.524 334.937 546.27 333.787 545.773C332.637 545.277 331.601 544.55 330.743 543.637C329.886 542.724 329.226 541.644 328.803 540.465C328.38 539.286 328.203 538.033 328.285 536.783L348.737 207.096C348.938 204.474 350.114 202.023 352.031 200.223C353.949 198.424 356.471 197.407 359.1 197.373Z" fill="#E76F51"/>
<path opacity="0.4" d="M341.894 528.721L586.146 531.647L605.958 212.339H361.523L341.894 528.721Z" fill="black"/>
<path d="M334.762 525.49H582.168C595.793 400.66 599.984 333.268 601.843 208.498H354.437C352.577 333.268 348.402 400.66 334.762 525.49Z" fill="white"/>
<path opacity="0.3" d="M572.247 295.275H529.651C529.222 295.28 528.796 295.195 528.402 295.024C528.008 294.853 527.655 294.601 527.365 294.284C527.071 293.971 526.844 293.602 526.697 293.198C526.551 292.795 526.488 292.366 526.512 291.937L529.148 249.357C529.198 248.558 529.551 247.807 530.134 247.258C530.717 246.709 531.487 246.403 532.288 246.4H574.959C575.388 246.402 575.812 246.49 576.206 246.661C576.599 246.832 576.954 247.081 577.247 247.394C577.541 247.706 577.768 248.075 577.915 248.478C578.061 248.881 578.124 249.31 578.099 249.738L575.447 292.334C575.433 292.738 575.339 293.136 575.171 293.503C575.002 293.871 574.761 294.201 574.463 294.475C574.165 294.749 573.816 294.961 573.435 295.098C573.055 295.235 572.651 295.295 572.247 295.275ZM533.004 288.996H569.29L571.5 252.694H535.244L533.004 288.996Z" fill="#E76F51"/>
<path opacity="0.3" d="M568.208 360.152H525.628C525.199 360.15 524.776 360.062 524.383 359.892C523.99 359.721 523.635 359.473 523.342 359.161C523.046 358.85 522.817 358.48 522.67 358.077C522.523 357.673 522.461 357.243 522.488 356.814L525.125 314.218C525.175 313.42 525.528 312.672 526.111 312.125C526.695 311.579 527.465 311.275 528.264 311.277H570.86C571.289 311.272 571.715 311.357 572.109 311.528C572.503 311.699 572.856 311.951 573.146 312.268C573.44 312.581 573.667 312.95 573.813 313.353C573.96 313.757 574.023 314.186 573.999 314.615L571.348 357.195C571.301 357.996 570.95 358.748 570.366 359.298C569.782 359.847 569.01 360.153 568.208 360.152ZM528.965 353.858H565.252L567.507 317.556H531.221L528.965 353.858Z" fill="#E76F51"/>
<path opacity="0.3" d="M564.185 425.013H521.604C521.173 425.015 520.746 424.928 520.351 424.757C519.955 424.587 519.598 424.337 519.303 424.023C519.006 423.712 518.778 423.343 518.633 422.939C518.489 422.534 518.431 422.104 518.465 421.676L521.101 379.095C521.152 378.296 521.504 377.546 522.087 376.997C522.67 376.448 523.44 376.141 524.241 376.138H566.837C567.265 376.14 567.689 376.228 568.082 376.399C568.475 376.569 568.829 376.817 569.123 377.129C569.414 377.444 569.64 377.813 569.786 378.216C569.933 378.619 569.997 379.048 569.976 379.476L567.324 422.148C567.255 422.932 566.895 423.662 566.313 424.193C565.732 424.723 564.972 425.016 564.185 425.013ZM524.942 418.734H561.228L563.484 382.433H527.197L524.942 418.734Z" fill="#E76F51"/>
<path opacity="0.3" d="M560.161 489.89H517.581C517.15 489.888 516.725 489.799 516.329 489.629C515.934 489.459 515.577 489.211 515.28 488.899C514.982 488.589 514.754 488.22 514.61 487.815C514.465 487.411 514.408 486.98 514.441 486.552L517.078 443.956C517.132 443.16 517.486 442.413 518.069 441.868C518.651 441.322 519.419 441.017 520.217 441.015H562.813C563.242 441.01 563.668 441.095 564.062 441.266C564.456 441.437 564.809 441.689 565.099 442.006C565.393 442.319 565.62 442.688 565.767 443.092C565.913 443.495 565.977 443.924 565.953 444.353L563.301 486.933C563.251 487.733 562.898 488.483 562.315 489.032C561.732 489.581 560.962 489.888 560.161 489.89ZM520.918 483.596H557.205L559.46 447.294H523.174L520.918 483.596Z" fill="#E76F51"/>
<path opacity="0.3" d="M396.057 265.267H492.511C493.947 265.245 495.323 264.687 496.368 263.703C497.414 262.719 498.055 261.38 498.165 259.949C498.216 259.264 498.124 258.577 497.895 257.93C497.666 257.283 497.305 256.691 496.835 256.191C496.365 255.69 495.796 255.294 495.165 255.025C494.533 254.756 493.853 254.622 493.166 254.63H396.728C395.29 254.645 393.91 255.201 392.863 256.186C391.815 257.171 391.177 258.514 391.074 259.949C391.023 260.632 391.115 261.318 391.343 261.964C391.571 262.61 391.93 263.201 392.399 263.701C392.867 264.201 393.434 264.598 394.064 264.868C394.693 265.137 395.372 265.274 396.057 265.267Z" fill="#E76F51"/>
<path opacity="0.3" d="M413.004 287.061H491.109C492.545 287.038 493.92 286.48 494.966 285.497C496.012 284.513 496.653 283.174 496.763 281.742C496.816 281.058 496.726 280.37 496.499 279.722C496.272 279.074 495.913 278.481 495.444 277.979C494.975 277.478 494.408 277.079 493.777 276.809C493.146 276.538 492.466 276.402 491.78 276.408H413.705C412.267 276.431 410.889 276.99 409.843 277.978C408.797 278.965 408.157 280.307 408.051 281.742C408.001 282.422 408.091 283.106 408.318 283.75C408.544 284.394 408.901 284.984 409.366 285.483C409.831 285.982 410.394 286.38 411.02 286.652C411.646 286.923 412.322 287.062 413.004 287.061Z" fill="#E76F51"/>
<path opacity="0.3" d="M391.348 341.285H487.802C488.487 341.279 489.166 341.415 489.795 341.684C490.425 341.954 490.992 342.351 491.46 342.851C491.929 343.351 492.288 343.942 492.516 344.588C492.744 345.234 492.836 345.92 492.785 346.603C492.675 348.035 492.035 349.374 490.989 350.358C489.943 351.342 488.567 351.9 487.131 351.922H390.677C389.992 351.928 389.314 351.792 388.684 351.523C388.054 351.253 387.487 350.856 387.019 350.356C386.551 349.856 386.191 349.264 385.963 348.619C385.735 347.973 385.643 347.286 385.694 346.603C385.804 345.172 386.445 343.833 387.491 342.849C388.536 341.865 389.912 341.307 391.348 341.285Z" fill="#E76F51"/>
<path opacity="0.3" d="M411.038 319.491H489.204C489.89 319.483 490.571 319.618 491.202 319.886C491.834 320.155 492.402 320.552 492.872 321.052C493.342 321.552 493.703 322.144 493.932 322.791C494.161 323.438 494.253 324.126 494.203 324.81C494.096 326.245 493.457 327.587 492.411 328.574C491.365 329.562 489.987 330.121 488.549 330.144H410.383C409.695 330.153 409.013 330.018 408.381 329.748C407.748 329.478 407.178 329.08 406.708 328.578C406.238 328.077 405.877 327.482 405.649 326.834C405.421 326.185 405.331 325.496 405.384 324.81C405.494 323.378 406.135 322.039 407.181 321.055C408.227 320.072 409.602 319.514 411.038 319.491Z" fill="#E76F51"/>
<path opacity="0.3" d="M388.01 395.006H484.464C485.9 394.983 487.276 394.425 488.322 393.441C489.368 392.458 490.008 391.119 490.118 389.687C490.169 389.002 490.077 388.315 489.848 387.668C489.619 387.021 489.258 386.429 488.788 385.929C488.318 385.429 487.749 385.032 487.118 384.763C486.486 384.494 485.806 384.36 485.12 384.368H388.62C387.184 384.39 385.809 384.948 384.763 385.932C383.717 386.916 383.076 388.255 382.966 389.687C382.915 390.375 383.008 391.067 383.24 391.717C383.472 392.367 383.837 392.961 384.312 393.462C384.787 393.963 385.361 394.359 385.998 394.625C386.635 394.89 387.32 395.02 388.01 395.006Z" fill="#E76F51"/>
<path opacity="0.3" d="M444.307 416.799H483.108C484.544 416.776 485.919 416.219 486.965 415.235C488.011 414.251 488.652 412.912 488.762 411.48C488.813 410.795 488.721 410.107 488.492 409.459C488.263 408.811 487.902 408.218 487.432 407.717C486.963 407.215 486.394 406.817 485.763 406.547C485.131 406.276 484.45 406.14 483.763 406.146H445.008C443.571 406.172 442.195 406.733 441.149 407.72C440.104 408.706 439.464 410.047 439.354 411.48C439.304 412.161 439.394 412.844 439.621 413.488C439.847 414.132 440.204 414.722 440.669 415.221C441.134 415.721 441.697 416.118 442.323 416.39C442.949 416.661 443.625 416.801 444.307 416.799Z" fill="#E76F51"/>
<path opacity="0.3" d="M405.003 416.799H425.47C426.906 416.776 428.282 416.219 429.328 415.235C430.374 414.251 431.014 412.912 431.124 411.48C431.175 410.795 431.083 410.107 430.854 409.459C430.625 408.811 430.265 408.218 429.795 407.717C429.325 407.215 428.756 406.817 428.125 406.547C427.493 406.276 426.813 406.14 426.126 406.146H405.658C404.221 406.172 402.845 406.733 401.8 407.72C400.754 408.706 400.114 410.047 400.004 411.48C399.954 412.164 400.046 412.852 400.275 413.499C400.504 414.146 400.865 414.738 401.335 415.238C401.805 415.738 402.373 416.135 403.005 416.404C403.636 416.672 404.317 416.807 405.003 416.799Z" fill="#E76F51"/>
<path opacity="0.3" d="M384.048 459.882H480.502C481.938 459.86 483.313 459.302 484.359 458.318C485.405 457.334 486.046 455.995 486.156 454.563C486.207 453.878 486.115 453.19 485.886 452.542C485.657 451.895 485.296 451.301 484.826 450.8C484.357 450.299 483.788 449.901 483.157 449.63C482.525 449.36 481.844 449.223 481.157 449.229H384.642C383.204 449.252 381.826 449.812 380.78 450.799C379.734 451.786 379.095 453.129 378.988 454.563C378.937 455.253 379.031 455.946 379.263 456.597C379.496 457.248 379.862 457.843 380.339 458.344C380.816 458.845 381.392 459.241 382.031 459.506C382.67 459.771 383.357 459.899 384.048 459.882Z" fill="#E76F51"/>
<path opacity="0.3" d="M400.98 481.675H479.085C480.522 481.649 481.898 481.088 482.943 480.102C483.989 479.115 484.629 477.775 484.739 476.341C484.789 475.657 484.697 474.97 484.468 474.323C484.239 473.676 483.878 473.083 483.408 472.583C482.938 472.083 482.37 471.686 481.738 471.418C481.107 471.149 480.426 471.014 479.74 471.023H401.635C400.199 471.045 398.824 471.603 397.778 472.587C396.732 473.571 396.091 474.91 395.981 476.341C395.93 477.027 396.022 477.715 396.251 478.362C396.48 479.01 396.841 479.603 397.311 480.105C397.78 480.606 398.349 481.004 398.98 481.275C399.612 481.545 400.293 481.682 400.98 481.675Z" fill="#E76F51"/>
<path d="M548.808 283.616C548.176 283.621 547.558 283.429 547.04 283.068L530.626 271.866C530 271.371 529.584 270.656 529.464 269.867C529.344 269.077 529.527 268.271 529.978 267.612C530.429 266.952 531.113 266.488 531.892 266.313C532.671 266.138 533.488 266.266 534.177 266.669L548.198 276.255C553.319 270.083 567.919 253.395 580.065 247.924C580.442 247.756 580.849 247.664 581.262 247.653C581.675 247.642 582.086 247.713 582.471 247.86C582.857 248.008 583.21 248.231 583.509 248.515C583.809 248.799 584.05 249.14 584.218 249.517C584.386 249.894 584.478 250.301 584.489 250.714C584.5 251.127 584.43 251.538 584.282 251.923C584.134 252.309 583.911 252.662 583.627 252.961C583.343 253.261 583.002 253.502 582.625 253.67C569.366 259.568 551.459 282.199 551.292 282.428C550.994 282.8 550.616 283.1 550.186 283.306C549.755 283.512 549.284 283.618 548.808 283.616Z" fill="#E76F51"/>
<path d="M541.172 347.228C540.357 347.23 539.571 346.919 538.978 346.36L524.698 332.644C524.092 332.063 523.741 331.266 523.722 330.428C523.703 329.589 524.019 328.777 524.599 328.171C525.179 327.564 525.976 327.213 526.815 327.195C527.654 327.176 528.466 327.491 529.072 328.072L541.264 339.791C547.284 334.411 564.124 320.086 576.864 316.611C577.265 316.502 577.683 316.473 578.094 316.525C578.506 316.578 578.903 316.711 579.263 316.916C579.623 317.122 579.939 317.397 580.193 317.725C580.447 318.053 580.634 318.428 580.743 318.828C580.852 319.229 580.881 319.647 580.829 320.058C580.776 320.47 580.644 320.867 580.438 321.227C580.232 321.587 579.957 321.903 579.629 322.157C579.301 322.411 578.926 322.598 578.526 322.707C564.627 326.502 543.58 346.222 543.367 346.42C543.072 346.693 542.727 346.905 542.35 347.043C541.974 347.182 541.573 347.245 541.172 347.228Z" fill="#E76F51"/>
<path opacity="0.4" d="M514.457 215.997H519.029C520.254 216.009 521.469 215.779 522.605 215.322C523.741 214.864 524.776 214.187 525.651 213.33C526.525 212.472 527.222 211.45 527.702 210.323C528.182 209.196 528.435 207.986 528.447 206.761V198.257C528.447 198.134 528.422 198.012 528.375 197.898C528.327 197.784 528.257 197.681 528.169 197.594C528.081 197.508 527.977 197.44 527.863 197.394C527.748 197.348 527.625 197.325 527.502 197.328H514.579C514.301 197.331 514.036 197.444 513.839 197.64C513.643 197.836 513.531 198.101 513.527 198.379L513.588 215.067C513.588 215.303 513.677 215.531 513.838 215.704C514 215.876 514.221 215.981 514.457 215.997Z" fill="black"/>
<path d="M444.322 181.95H522.138C523.249 181.919 524.354 182.134 525.372 182.581C526.391 183.028 527.297 183.696 528.026 184.535C528.755 185.375 529.288 186.366 529.588 187.437C529.887 188.508 529.945 189.632 529.758 190.729L527.426 208.056C527.047 210.452 525.844 212.639 524.024 214.242C522.205 215.844 519.883 216.762 517.459 216.835H439.613C438.501 216.866 437.397 216.651 436.378 216.204C435.36 215.757 434.454 215.089 433.725 214.25C432.996 213.41 432.462 212.419 432.163 211.348C431.863 210.277 431.805 209.153 431.993 208.056L434.34 190.729C434.719 188.331 435.925 186.141 437.747 184.539C439.57 182.936 441.896 182.02 444.322 181.95Z" fill="#E76F51"/>
<path opacity="0.6" d="M444.322 181.95H522.138C523.249 181.919 524.354 182.134 525.372 182.581C526.391 183.028 527.297 183.696 528.026 184.535C528.755 185.375 529.288 186.366 529.588 187.437C529.887 188.508 529.945 189.632 529.758 190.729L527.426 208.056C527.047 210.452 525.844 212.639 524.024 214.242C522.205 215.844 519.883 216.762 517.459 216.835H439.613C438.501 216.866 437.397 216.651 436.378 216.204C435.36 215.757 434.454 215.089 433.725 214.25C432.996 213.41 432.462 212.419 432.163 211.348C431.863 210.277 431.805 209.153 431.993 208.056L434.34 190.729C434.719 188.331 435.925 186.141 437.747 184.539C439.57 182.936 441.896 182.02 444.322 181.95Z" fill="white"/>
<path opacity="0.5" d="M520.126 190.332H485.074C484.749 190.359 484.422 190.317 484.113 190.211C483.805 190.104 483.522 189.935 483.283 189.714C483.043 189.493 482.851 189.224 482.721 188.925C482.59 188.627 482.522 188.304 482.522 187.978C482.522 187.652 482.59 187.329 482.721 187.03C482.851 186.731 483.043 186.463 483.283 186.242C483.522 186.021 483.805 185.851 484.113 185.745C484.422 185.638 484.749 185.597 485.074 185.623H520.126C520.718 185.671 521.27 185.94 521.672 186.376C522.075 186.812 522.299 187.384 522.299 187.978C522.299 188.571 522.075 189.143 521.672 189.58C521.27 190.016 520.718 190.285 520.126 190.332Z" fill="white"/>
<path opacity="0.5" d="M473.415 190.332H469.727C469.402 190.359 469.075 190.317 468.767 190.211C468.458 190.104 468.176 189.935 467.936 189.714C467.696 189.493 467.505 189.224 467.374 188.925C467.243 188.627 467.175 188.304 467.175 187.978C467.175 187.652 467.243 187.329 467.374 187.03C467.505 186.731 467.696 186.463 467.936 186.242C468.176 186.021 468.458 185.851 468.767 185.745C469.075 185.638 469.402 185.597 469.727 185.623H473.415C473.741 185.597 474.068 185.638 474.376 185.745C474.684 185.851 474.967 186.021 475.207 186.242C475.447 186.463 475.638 186.731 475.769 187.03C475.9 187.329 475.967 187.652 475.967 187.978C475.967 188.304 475.9 188.627 475.769 188.925C475.638 189.224 475.447 189.493 475.207 189.714C474.967 189.935 474.684 190.104 474.376 190.211C474.068 190.317 473.741 190.359 473.415 190.332Z" fill="white"/>
<path d="M258.257 528.295L273.299 531.175L308.854 363.962L286.771 359.74L258.257 528.295Z" fill="#E76F51"/>
<path d="M311.125 247.863L329.138 241.935L330.388 235.397L313.609 234.879L311.125 247.863Z" fill="#264653"/>
<path d="M310.667 244.053L331.18 237.378L310.104 357.408L288.021 353.202L310.667 244.053Z" fill="#E76F51"/>
<path d="M289.287 359.935L309.524 363.859L310.79 357.332L290.553 353.409L289.287 359.935Z" fill="#264653"/>
<path d="M260.97 548.091C260.772 549.082 261.183 549.996 261.884 550.134C262.585 550.271 263.317 549.57 263.5 548.61C263.682 547.649 263.271 546.705 262.57 546.567C261.869 546.43 261.153 547.116 260.97 548.091Z" fill="#E76F51"/>
<path d="M259.933 548.213L264.414 549.067L273.299 531.175L258.257 528.295L259.933 548.213Z" fill="#264653"/>
<path d="M287.03 322.814C286.712 322.812 286.399 322.731 286.12 322.577C285.842 322.423 285.606 322.202 285.435 321.934C285.263 321.666 285.162 321.359 285.14 321.041C285.118 320.724 285.176 320.406 285.308 320.116C294.757 299.862 302.423 257.556 303.459 247.498C303.607 246.039 304.143 244.646 305.011 243.464C305.88 242.282 307.049 241.354 308.397 240.777L313.38 238.628C313.608 238.528 313.854 238.474 314.103 238.469C314.352 238.463 314.6 238.507 314.832 238.598C315.064 238.689 315.276 238.824 315.456 238.996C315.635 239.169 315.779 239.375 315.88 239.603C315.98 239.831 316.034 240.077 316.039 240.326C316.044 240.575 316 240.823 315.909 241.055C315.819 241.287 315.683 241.499 315.511 241.679C315.338 241.859 315.132 242.003 314.904 242.103L309.921 244.251C309.193 244.567 308.562 245.071 308.093 245.711C307.624 246.351 307.335 247.105 307.254 247.894C306.172 258.455 298.567 300.746 288.783 321.716C288.627 322.049 288.379 322.329 288.068 322.524C287.757 322.718 287.397 322.819 287.03 322.814Z" fill="#264653"/>
<path d="M216.819 241.996C213.025 248.503 209.199 255.407 205.588 262.174C203.805 265.587 202.067 269.001 200.406 272.43C198.745 275.859 197.19 279.319 195.834 282.763L195.575 283.388C195.52 283.487 195.484 283.596 195.468 283.708C195.382 284.211 195.346 284.722 195.362 285.232C195.428 286.743 195.642 288.243 196.002 289.712C196.873 293.222 197.994 296.664 199.354 300.015C200.711 303.52 202.265 307.04 203.926 310.576C205.588 314.112 207.279 317.647 208.94 321.092L201.701 326.029C196.299 319.752 191.498 312.981 187.361 305.806C185.162 302.035 183.301 298.078 181.798 293.98C180.963 291.645 180.35 289.236 179.969 286.786C179.765 285.307 179.703 283.812 179.786 282.321C179.848 281.44 179.97 280.564 180.152 279.7C180.243 279.258 180.396 278.755 180.533 278.282L180.777 277.505C183.248 269.563 186.305 261.815 189.921 254.325C193.465 246.897 197.428 239.677 201.793 232.7L216.819 241.996Z" fill="#FFC3BD"/>
<path d="M207.797 318.897L214.61 324.201L204.216 332.796C204.216 332.796 199.476 328.224 200.208 322.6L207.797 318.897Z" fill="#FFC3BD"/>
<path d="M217.383 331.942L210.449 340.858L204.201 332.796L214.61 324.201L217.383 331.942Z" fill="#FFC3BD"/>
<path d="M256.032 178.476C256.23 179.39 256.87 180 257.465 180C258.059 180 258.409 179.024 258.227 178.11C258.044 177.195 257.388 176.586 256.794 176.662C256.2 176.738 255.91 177.546 256.032 178.476Z" fill="#264653"/>
<path d="M256.84 180.061C258.518 182.656 260.543 185.01 262.86 187.056C262.319 187.635 261.658 188.089 260.924 188.387C260.189 188.684 259.399 188.818 258.608 188.778L256.84 180.061Z" fill="#ED847E"/>
<path d="M251.673 174.041C251.537 174.036 251.407 173.982 251.308 173.888C251.255 173.839 251.212 173.778 251.183 173.711C251.154 173.645 251.14 173.573 251.14 173.5C251.14 173.427 251.154 173.355 251.183 173.288C251.212 173.221 251.255 173.161 251.308 173.111C251.882 172.447 252.61 171.934 253.428 171.615C254.246 171.297 255.129 171.182 256.002 171.282C256.073 171.294 256.141 171.32 256.202 171.359C256.263 171.397 256.316 171.447 256.357 171.505C256.399 171.564 256.429 171.631 256.445 171.701C256.461 171.771 256.463 171.844 256.451 171.915C256.439 171.986 256.413 172.054 256.375 172.115C256.337 172.176 256.287 172.229 256.228 172.271C256.169 172.312 256.103 172.342 256.033 172.358C255.962 172.374 255.89 172.376 255.819 172.364C255.124 172.304 254.426 172.411 253.782 172.676C253.137 172.941 252.566 173.357 252.115 173.888C252.057 173.945 251.988 173.988 251.911 174.014C251.835 174.04 251.754 174.05 251.673 174.041Z" fill="#264653"/>
<path d="M229.804 191.445C231.48 199.995 233.157 215.646 227.183 221.346C227.183 221.346 229.514 230.002 245.379 230.002C262.829 230.002 253.731 221.346 253.731 221.346C244.206 219.06 244.45 212.004 246.111 205.359L229.804 191.445Z" fill="#FFC3BD"/>
<path d="M223.799 221.986C222.535 218.938 225.323 209.794 228.143 208.925C231.328 207.95 243.383 208.498 249.479 211.013C253.761 215.341 254.996 224.318 254.996 224.318L223.799 221.986Z" fill="#264653"/>
<path d="M173.965 621.06C174.433 621.229 174.931 621.302 175.428 621.276C175.925 621.249 176.412 621.125 176.86 620.908C177.037 620.753 177.16 620.544 177.209 620.313C177.259 620.083 177.232 619.842 177.135 619.628C177.081 619.447 176.99 619.28 176.866 619.138C176.742 618.996 176.59 618.883 176.418 618.805C174.894 618.058 171.221 619.536 171.069 619.597C171.02 619.616 170.977 619.649 170.947 619.693C170.917 619.737 170.901 619.788 170.901 619.841C170.901 619.894 170.914 619.946 170.941 619.992C170.968 620.038 171.007 620.075 171.054 620.1C171.985 620.528 172.962 620.85 173.965 621.06ZM175.854 619.201L176.19 619.308C176.288 619.352 176.376 619.417 176.447 619.499C176.518 619.58 176.571 619.676 176.601 619.78C176.754 620.283 176.601 620.436 176.51 620.481C175.885 621.015 173.553 620.481 171.938 619.872C173.177 619.358 174.515 619.129 175.854 619.201Z" fill="#E76F51"/>
<path d="M171.115 620.131H171.252C172.578 619.75 175.397 617.738 175.428 616.412C175.432 616.206 175.364 616.005 175.236 615.844C175.108 615.683 174.928 615.571 174.727 615.528C174.526 615.456 174.312 615.427 174.1 615.443C173.887 615.459 173.68 615.519 173.492 615.62C171.968 616.412 170.947 619.658 170.917 619.796C170.891 619.837 170.877 619.884 170.877 619.933C170.877 619.981 170.891 620.029 170.917 620.07L171.115 620.131ZM174.422 616.001H174.544C174.879 616.123 174.879 616.29 174.879 616.351C174.879 617.144 172.989 618.714 171.633 619.399C171.992 618.114 172.731 616.967 173.751 616.107C173.956 615.998 174.193 615.96 174.422 616.001Z" fill="#E76F51"/>
<path d="M258.227 623.026C259.751 623.026 261.183 622.813 261.656 622.143C261.783 621.968 261.852 621.757 261.852 621.541C261.852 621.324 261.783 621.113 261.656 620.939C261.561 620.776 261.433 620.636 261.281 620.526C261.129 620.416 260.955 620.338 260.772 620.298C258.836 619.765 254.752 622.082 254.584 622.188C254.534 622.216 254.494 622.259 254.469 622.311C254.444 622.363 254.437 622.421 254.447 622.478C254.456 622.531 254.481 622.581 254.519 622.619C254.558 622.657 254.607 622.682 254.66 622.691C255.837 622.909 257.03 623.021 258.227 623.026ZM260.086 620.756C260.266 620.756 260.446 620.782 260.619 620.832C260.731 620.851 260.838 620.895 260.93 620.961C261.022 621.027 261.099 621.113 261.153 621.213C261.351 621.548 261.29 621.731 261.153 621.822C260.604 622.585 257.663 622.6 255.483 622.295C256.901 621.482 258.465 620.959 260.086 620.756Z" fill="#E76F51"/>
<path d="M254.706 622.706H254.813C256.23 622.082 259.019 619.552 258.806 618.226C258.806 617.921 258.531 617.54 257.769 617.464C257.496 617.431 257.22 617.456 256.957 617.537C256.694 617.619 256.452 617.755 256.245 617.936C254.721 619.155 254.447 622.295 254.432 622.432C254.424 622.479 254.43 622.527 254.449 622.57C254.468 622.613 254.499 622.65 254.538 622.676C254.588 622.707 254.648 622.718 254.706 622.706ZM257.556 617.967H257.724C258.211 617.967 258.242 618.211 258.257 618.272C258.394 619.064 256.489 621.045 255.057 621.914C255.182 620.587 255.715 619.331 256.581 618.317C256.855 618.09 257.2 617.966 257.556 617.967Z" fill="#E76F51"/>
<path d="M241.874 622.432H253.548L254.706 595.396H243.032L241.874 622.432Z" fill="#FFC3BD"/>
<path d="M157.627 617.022L169.347 619.491L177.622 594.314L165.887 591.845L157.627 617.022Z" fill="#FFC3BD"/>
<path d="M170.688 618.348L157.871 615.574C157.645 615.525 157.409 615.553 157.201 615.656C156.993 615.758 156.826 615.928 156.728 616.138L152.278 625.8C152.172 626.036 152.121 626.293 152.128 626.552C152.135 626.81 152.201 627.064 152.319 627.294C152.438 627.523 152.607 627.724 152.813 627.879C153.02 628.035 153.259 628.142 153.513 628.193C158.008 629.077 160.233 629.29 165.872 630.509C169.332 631.256 177.165 633.161 181.95 634.197C186.736 635.234 188.397 630.631 186.522 629.778C178.156 625.953 174.65 622.584 172.395 619.445C171.979 618.883 171.372 618.493 170.688 618.348Z" fill="#264653"/>
<path d="M253.472 621.076H240.792C240.562 621.077 240.339 621.156 240.159 621.299C239.979 621.443 239.853 621.644 239.801 621.868L237.5 632.247C237.439 632.497 237.437 632.759 237.493 633.01C237.55 633.262 237.663 633.497 237.825 633.698C237.988 633.898 238.194 634.059 238.428 634.167C238.663 634.274 238.919 634.327 239.177 634.319C243.749 634.243 250.424 633.984 256.2 633.984C262.951 633.984 260.33 634.35 268.254 634.35C273.055 634.35 274.35 629.503 272.369 629.061C263.225 627.065 264.246 626.852 256.352 621.99C255.5 621.414 254.5 621.097 253.472 621.076Z" fill="#264653"/>
<path d="M206.273 224.028C195.331 226.527 186.324 254.508 186.324 254.508L208.285 271.272C213.974 265.209 217.991 257.773 219.944 249.692C223.708 234.955 217.46 221.407 206.273 224.028Z" fill="#264653"/>
<path opacity="0.2" d="M215.661 244.526C209.718 250.393 207.782 261.107 207.31 270.434L208.285 271.181C213.98 265.122 217.998 257.685 219.944 249.601C220.172 248.732 220.355 247.848 220.523 246.995L215.661 244.526Z" fill="black"/>
<path d="M271.684 224.577C271.684 224.577 284.104 238.613 272.369 325.481H209.885C209.459 315.895 215.478 269.093 206.228 223.982C213.133 222.652 220.118 221.772 227.137 221.346C235.979 220.827 244.843 220.827 253.685 221.346C259.76 221.953 265.777 223.033 271.684 224.577Z" fill="#264653"/>
<path opacity="0.2" d="M254.706 595.396L254.112 609.341H242.423L243.017 595.396H254.706Z" fill="black"/>
<path opacity="0.2" d="M165.887 591.845L177.622 594.314L173.34 607.299L161.62 604.83L165.887 591.845Z" fill="black"/>
<path d="M224.927 182.773C227.975 193.959 229.103 200.665 236.007 205.313C246.4 212.324 259.339 204.292 259.735 192.42C260.101 181.752 255.163 165.247 243.124 162.992C240.479 162.48 237.747 162.654 235.188 163.496C232.629 164.338 230.328 165.821 228.504 167.804C226.681 169.787 225.394 172.203 224.768 174.823C224.142 177.443 224.197 180.18 224.927 182.773Z" fill="#FFC3BD"/>
<path d="M236.083 204.018H235.93C234.126 204.028 232.346 203.607 230.737 202.791C229.128 201.974 227.737 200.786 226.68 199.324C223.175 194.432 218.252 185.943 217.688 176.144C222.138 171.45 238.857 168.356 246.309 170.048C252.512 171.465 251.612 189.128 245.745 198.684C244.719 200.319 243.294 201.667 241.604 202.6C239.913 203.533 238.014 204.021 236.083 204.018Z" fill="#FFC3BD"/>
<path opacity="0.8" d="M236.083 204.018H235.93C234.126 204.028 232.346 203.607 230.737 202.791C229.128 201.974 227.737 200.786 226.68 199.324C223.175 194.432 218.252 185.943 217.688 176.144C222.138 171.45 238.857 168.356 246.309 170.048C252.512 171.465 251.612 189.128 245.745 198.684C244.719 200.319 243.294 201.667 241.604 202.6C239.913 203.533 238.014 204.021 236.083 204.018Z" fill="#264653"/>
<path d="M224.47 180.122C222.472 180.066 220.536 179.418 218.908 178.259C217.279 177.1 216.033 175.483 215.326 173.614C214 169.652 215.402 161.285 223.373 161.041C231.343 160.797 232.166 156.256 229.713 155.326C234.925 155.707 233.279 159.349 233.279 159.349C234.666 159.349 235.976 155.616 243.947 155.92C251.917 156.225 255.803 154.518 254.782 152.735C258.547 153.497 257.495 158.069 254.31 159.304C254.31 159.304 261.854 165.019 263.637 161.879C264.902 164.165 262.402 166.908 252.877 165.659C256.672 170.978 247.68 169.789 243.855 172.197C240.03 174.605 229.728 180.503 224.47 180.122Z" fill="#264653"/>
<path d="M243.962 182.255C244.73 185.028 246.384 187.474 248.671 189.22C251.719 191.475 253.975 189.22 253.761 185.806C253.578 182.758 251.75 177.805 248.412 176.891C245.074 175.976 243.093 178.887 243.962 182.255Z" fill="#FFC3BD"/>
<path d="M250.226 325.481C250.226 325.481 236.967 414.696 229.697 448.117C221.742 484.693 179.024 605.805 179.024 605.805L158.13 601.233C158.13 601.233 188.001 502.539 194.706 451.378C199.842 412.074 209.946 325.42 209.946 325.42L250.226 325.481Z" fill="#264653"/>
<path d="M184.038 598.841L180.137 606.461L156.621 601.37L158.603 594.299L184.038 598.841Z" fill="#E76F51"/>
<path opacity="0.3" d="M241.844 357.271C226.527 360.319 228.128 417.393 230.002 446.776C234.406 426.004 240.883 386.044 245.242 357.683C244.187 357.171 242.991 357.027 241.844 357.271Z" fill="black"/>
<path d="M272.369 325.481C272.369 325.481 273.985 412.76 272.705 448.361C271.394 485.394 258.455 606.643 258.455 606.643H238.643C238.643 606.643 237.927 487.558 237.043 451.195C236.083 411.571 231.298 325.481 231.298 325.481H272.369Z" fill="#264653"/>
<path d="M262.265 598.764C262.357 598.764 261.137 606.963 261.137 606.963H237.089L236.433 599.648L262.265 598.764Z" fill="#E76F51"/>
<path d="M271.973 223.037C275.021 224.302 277.962 226.573 278.846 234.117C279.7 241.356 278.054 304.8 276.073 325.054C276.045 325.749 275.77 326.412 275.298 326.923C274.826 327.434 274.188 327.76 273.497 327.843C261.015 328.376 222.352 323.164 209.306 325.45C207.782 325.725 206.456 324.048 206.548 322.524C207.569 302.788 206.09 270.937 203.683 250.713C202.159 237.5 202.159 223.677 213.177 221.331C221.376 219.593 260.055 218.069 271.973 223.037Z" fill="#E76F51"/>
<path d="M276.804 240.563C277.505 243.916 278.328 247.559 279.09 251.033C279.852 254.508 280.797 258.028 281.772 261.457C282.748 264.886 283.754 268.254 284.912 271.47C285.952 274.52 287.258 277.472 288.813 280.294C289.381 281.378 290.06 282.4 290.84 283.342C291.13 283.662 291.358 283.875 291.419 283.936C291.48 283.997 291.419 284.074 291.709 284.165C292.69 284.49 293.725 284.624 294.757 284.561C296.29 284.495 297.817 284.332 299.329 284.074C306.21 282.625 312.967 280.637 319.537 278.13L323.972 285.75C317.673 290.807 310.617 294.839 303.063 297.698C300.954 298.473 298.782 299.059 296.57 299.451C293.895 299.956 291.152 299.998 288.463 299.573C286.733 299.28 285.062 298.714 283.51 297.896C282.111 297.115 280.812 296.168 279.639 295.077C277.78 293.34 276.137 291.386 274.747 289.255C270.442 282.179 267.105 274.557 264.825 266.593C263.682 262.829 262.631 259.065 261.777 255.27C260.924 251.475 260.071 247.787 259.415 243.749L276.804 240.563Z" fill="#FFC3BD"/>
<path d="M251.125 235.991C241.645 255.057 264.17 276.606 264.17 276.606L289.286 263.5C287.532 253.396 284.654 243.52 280.706 234.056C273.39 217.78 256.581 225.034 251.125 235.991Z" fill="#264653"/>
<path d="M317.205 279.197L325.725 273.589L329.26 286.329C329.26 286.329 325.45 290.794 318.47 285.933L317.205 279.197Z" fill="#FFC3BD"/>
<path d="M333.146 278.74L332.872 281.422C332.734 282.709 332.113 283.896 331.135 284.744L329.26 286.268L325.725 273.528L326.807 273.253C327.605 273.046 328.442 273.035 329.245 273.223C330.049 273.411 330.794 273.791 331.418 274.331C332.042 274.87 332.525 275.554 332.826 276.322C333.127 277.09 333.237 277.92 333.146 278.74Z" fill="#FFC3BD"/>
</g>
<defs>
<clipPath id="clip0">
<rect width="762" height="762" fill="white"/>
</clipPath>
</defs>
</svg>
